# xmcd
#
# Track frame offsets:
#	182
#	18567
#	39655
#	74992
#	94080
#	109407
#	135035
#	162137
#	184417
#
# Disc length: 2742 seconds
#
# Revision: 0
# Processed by: cddbd v1.4PL0 Copyright (c) Steve Scherf et al.
# Submitted via: OrangeCD 4.1
#
DISCID=7d0ab409
DTITLE=Big Joe Turner - Big Joe Turner
DYEAR=1900
DGENRE=
TTITLE0=Bad Luck
TTITLE1=No Response
TTITLE2=Your Time To Pay
TTITLE3=One Eye Open
TTITLE4=JJ's Jam
TTITLE5=Blood On Your Hands
TTITLE6=You're Mine
TTITLE7=Part Time Lover
TTITLE8=5 a.m. Crash
EXTD=
EXTT0=
EXTT1=
EXTT2=
EXTT3=
EXTT4=
EXTT5=
EXTT6=
EXTT7=
EXTT8=
PLAYORDER=
